<svg xmlns="http://www.w3.org/2000/svg" viewBox="0 0 1400 788" role="img" aria-label="Capa temporaria Quem Sou Eu"><defs><radialGradient id="g" cx="50%" cy="45%" r="70%"><stop offset="0" stop-color="#7c3aed"/><stop offset="0.5" stop-color="#1e1b4b"/><stop offset="1" stop-color="#0f172a"/></radialGradient><linearGradient id="gold" x1="0" x2="1"><stop offset="0" stop-color="#f59e0b"/><stop offset="1" stop-color="#fde047"/></linearGradient></defs><rect width="1400" height="788" fill="url(#g)"/><circle cx="700" cy="360" r="230" fill="none" stroke="#a855f7" stroke-width="26" opacity=".7"/><circle cx="700" cy="360" r="170" fill="none" stroke="#22d3ee" stroke-width="10" opacity=".45"/><g opacity=".55" fill="#fde68a"><circle cx="140" cy="120" r="6"/><circle cx="1230" cy="95" r="7"/><circle cx="1160" cy="650" r="5"/><circle cx="250" cy="680" r="5"/><circle cx="1020" cy="250" r="5"/></g><g transform="translate(260 125)"><rect x="0" y="0" width="145" height="190" rx="38" fill="#111827" stroke="#22d3ee" stroke-width="8"/><circle cx="72" cy="72" r="42" fill="#0f172a" stroke="#38bdf8" stroke-width="8"/><circle cx="58" cy="67" r="9" fill="#67e8f9"/><circle cx="88" cy="67" r="9" fill="#67e8f9"/><path d="M53 100 Q72 118 94 100" fill="none" stroke="#67e8f9" stroke-width="7" stroke-linecap="round"/></g><g transform="translate(610 150)"><circle cx="90" cy="90" r="78" fill="#f3c4a6" stroke="#7c2d12" stroke-width="8"/><path d="M24 72 C45 0 130 -5 158 72 C112 42 68 42 24 72Z" fill="#111827"/><circle cx="62" cy="92" r="12" fill="#111827"/><circle cx="118" cy="92" r="12" fill="#111827"/><path d="M60 132 C85 150 112 148 132 132" fill="none" stroke="#7c2d12" stroke-width="7" stroke-linecap="round"/><path d="M30 170 H150 L178 380 H2 Z" fill="#1f2937" stroke="#111827" stroke-width="8"/></g><g transform="translate(980 140)"><path d="M80 0 C160 35 180 120 125 190 C85 236 20 220 0 160 C-18 96 25 30 80 0Z" fill="#86198f" stroke="#f0abfc" stroke-width="9"/><circle cx="82" cy="105" r="35" fill="#f0abfc"/><path d="M62 105 Q82 122 105 105" fill="none" stroke="#581c87" stroke-width="7"/></g><g transform="translate(250 565)"><path d="M0 0 H900 C1000 0 1060 54 1030 125 C1000 197 890 215 735 205 H160 C55 210 10 176 0 105 C-10 44 55 0 160 0Z" fill="#241143" stroke="#f59e0b" stroke-width="16"/><text x="120" y="118" font-family="Arial Rounded MT Bold, Arial" font-size="120" font-weight="900" fill="url(#gold)" stroke="#7c2d12" stroke-width="5">Quem</text><text x="405" y="156" font-family="Arial Rounded MT Bold, Arial" font-size="86" font-weight="900" fill="#fff7ed" stroke="#1e1b4b" stroke-width="5">Sou</text><text x="605" y="160" font-family="Arial Rounded MT Bold, Arial" font-size="130" font-weight="900" fill="#d946ef" stroke="#581c87" stroke-width="5">eu?</text></g></svg>