<svg xmlns="http://www.w3.org/2000/svg" viewBox="0 0 900 360" role="img" aria-label="Quem Sou Eu"><defs><linearGradient id="gold" x1="0" x2="1"><stop offset="0" stop-color="#ffb400"/><stop offset="0.55" stop-color="#ffd84a"/><stop offset="1" stop-color="#f97316"/></linearGradient><linearGradient id="pink" x1="0" x2="1"><stop offset="0" stop-color="#f7a8ff"/><stop offset="1" stop-color="#a855f7"/></linearGradient><filter id="shadow" x="-20%" y="-20%" width="140%" height="140%"><feDropShadow dx="0" dy="10" stdDeviation="8" flood-color="#1e1b4b" flood-opacity=".35"/></filter></defs><rect width="900" height="360" fill="none"/><g filter="url(#shadow)"><path d="M94 225 C74 110 150 55 297 65 H662 C780 65 835 121 807 230 C787 304 709 326 556 315 H260 C154 318 105 291 94 225Z" fill="#241143" stroke="#f59e0b" stroke-width="15"/><path d="M375 52 L411 7 L449 52 L492 22 L501 82 H360 L367 22 Z" fill="url(#gold)" stroke="#92400e" stroke-width="7"/><text x="156" y="170" font-family="Arial Rounded MT Bold, Arial, sans-serif" font-size="112" font-weight="900" fill="url(#gold)" stroke="#7c2d12" stroke-width="5">Quem</text><text x="205" y="257" font-family="Arial Rounded MT Bold, Arial, sans-serif" font-size="83" font-weight="900" fill="#fff7ed" stroke="#1e1b4b" stroke-width="5">Sou</text><text x="402" y="264" font-family="Arial Rounded MT Bold, Arial, sans-serif" font-size="132" font-weight="900" fill="url(#pink)" stroke="#5b21b6" stroke-width="5">eu</text><text x="673" y="251" font-family="Arial Rounded MT Bold, Arial, sans-serif" font-size="144" font-weight="900" fill="#22d3ee" stroke="#0f766e" stroke-width="5">?</text><rect x="95" y="150" width="58" height="80" rx="10" transform="rotate(-12 124 190)" fill="#3b0764" stroke="#f59e0b" stroke-width="7"/><text x="115" y="205" font-family="Arial" font-size="48" font-weight="900" fill="#fbbf24">?</text></g></svg>